<svg id="Layer_1" data-name="Layer 1" xmlns="http://www.w3.org/2000/svg" viewBox="0 0 100 100"><defs><style>.cls-1{fill:none;}.cls-2{fill:#333;}</style></defs><title>design-patterns</title><rect class="cls-1" x="56.25" y="81.25" width="18.75" height="6.25" rx="1.56" ry="1.56"/><rect class="cls-1" x="25" y="25" width="18.75" height="6.25" rx="1.56" ry="1.56"/><rect class="cls-1" x="25" y="12.5" width="18.75" height="6.25" rx="1.56" ry="1.56"/><path class="cls-1" d="M71.88,43.75H28.13A3.12,3.12,0,0,0,25,46.88V65.63a3.12,3.12,0,0,0,3.13,3.13H71.88A3.12,3.12,0,0,0,75,65.63V46.88A3.12,3.12,0,0,0,71.88,43.75ZM68.75,62.5H31.25V50h37.5Z"/><rect class="cls-2" x="31.25" y="50" width="37.5" height="12.5"/><path class="cls-2" d="M87.5,23.81a4.67,4.67,0,0,0-1.37-3.3L67,1.37A4.68,4.68,0,0,0,63.69,0H62.5V25h25Z"/><path class="cls-2" d="M87.5,95.31V31.25H60.94a4.7,4.7,0,0,1-4.69-4.69V0H17.19A4.68,4.68,0,0,0,12.5,4.69V95.31A4.68,4.68,0,0,0,17.19,100H82.81A4.68,4.68,0,0,0,87.5,95.31ZM25,14.06a1.56,1.56,0,0,1,1.56-1.56H42.19a1.56,1.56,0,0,1,1.56,1.56v3.13a1.56,1.56,0,0,1-1.56,1.56H26.56A1.56,1.56,0,0,1,25,17.19Zm0,12.5A1.56,1.56,0,0,1,26.56,25H42.19a1.56,1.56,0,0,1,1.56,1.56v3.13a1.56,1.56,0,0,1-1.56,1.56H26.56A1.56,1.56,0,0,1,25,29.69ZM75,85.94a1.56,1.56,0,0,1-1.56,1.56H57.81a1.56,1.56,0,0,1-1.56-1.56V82.81a1.56,1.56,0,0,1,1.56-1.56H73.44A1.56,1.56,0,0,1,75,82.81Zm0-20.31a3.12,3.12,0,0,1-3.12,3.13H28.13A3.12,3.12,0,0,1,25,65.63V46.88a3.12,3.12,0,0,1,3.13-3.12H71.88A3.12,3.12,0,0,1,75,46.88Z"/></svg>