<svg id="Layer_1" data-name="Layer 1" xmlns="http://www.w3.org/2000/svg" viewBox="0 0 100 100"><defs><style>.cls-1{fill:none;}.cls-2{fill:#333;}</style></defs><title>sass</title><path class="cls-1" d="M35.63,72.31c1.28.33,3.39-5.92,4.39-8.37.62-1.53,3.08-8.33,2.53-9.25-.41-.7-2.14-.14-3.72,1.62a21.55,21.55,0,0,0-3.42,6.26C33.87,67.26,34.54,72,35.63,72.31Z"/><path class="cls-1" d="M12.81,72.49c-3.55,3.34-4.28,8-2.42,9s5.76-.19,8.64-3.33A12.46,12.46,0,0,0,22,66c-.16.09-.31.17-.45.27l-.19.11-1.78,1.08A46.29,46.29,0,0,0,12.81,72.49Z"/><path class="cls-1" d="M70.73,69.17a5.51,5.51,0,0,0,4-5.37,5.65,5.65,0,0,0-.3-1.69,12.16,12.16,0,0,0-3,3.83C70.47,68.21,70.42,68.95,70.73,69.17Z"/><path class="cls-1" d="M56.53,72.09s-.31.3-.17.37.58,0,1-.25c1.22-.75,3.91-2.64,3.92-5.44,0-.09,0-.17,0-.25-.62.81-1.2,1.55-1.7,2.17C58.71,69.76,56.53,72.09,56.53,72.09Z"/><path class="cls-2" d="M.1,44.3c1.78,9.2,14.46,15.2,19.54,19.64l-.7.39C16.39,65.59,6.72,70.65,4.3,76c-2.73,6.06.45,10.4,2.55,11,6.53,1.81,13.21-1.45,16.81-6.81s3.16-12.36,1.5-15.54c0,0,0-.08-.06-.12l2-1.17c1.3-.77,2.56-1.47,3.67-2.08a24.26,24.26,0,0,0-1.31,6.65c-.28,3.44,1.14,7.89,3,9.64a3.28,3.28,0,0,0,2.41.78c2.16,0,3.12-1.78,4.2-3.91,1.33-2.59,2.5-5.61,2.5-5.61S40.07,77,44.09,77c1.47,0,2.94-1.89,3.59-2.86v0l.11-.19c.16-.23.23-.37.23-.37v0c.59-1,1.89-3.34,3.84-7.19,2.53-5,5-11.17,5-11.17a31.44,31.44,0,0,0,1,4,37.74,37.74,0,0,0,2.09,4.69c-.59.81-1,1.28-1,1.28a0,0,0,0,0,0,0c-.47.62-1,1.3-1.55,2-2,2.37-4.37,5.09-4.69,5.87a1.6,1.6,0,0,0,.44,2.14,3.8,3.8,0,0,0,2.45.39,10.83,10.83,0,0,0,3.67-.84,12.85,12.85,0,0,0,3.16-1.66,7.05,7.05,0,0,0,3-6.22,12.94,12.94,0,0,0-1.14-4.4c.17-.25.36-.52.53-.78a83,83,0,0,0,5.48-9.47,31.44,31.44,0,0,0,1,4,27.57,27.57,0,0,0,1.78,4,17.16,17.16,0,0,0-5.33,6.89c-1.16,3.33-.25,4.83,1.45,5.17a5.24,5.24,0,0,0,2.67-.55A12.4,12.4,0,0,0,75.25,70c2-1.44,3.84-3.45,3.72-6.19a11.62,11.62,0,0,0-.84-3.66A19.07,19.07,0,0,1,87.82,59c8.7,1,10.4,6.45,10.08,8.72a5.74,5.74,0,0,1-2.76,3.91c-.61.37-.8.52-.75.8s.36.39.87.3a6.79,6.79,0,0,0,4.73-6c.25-5.31-4.86-11.15-13.9-11.11A20.5,20.5,0,0,0,77,57.72c-.92-1.86-1.87-3.48-2-4.7a12.55,12.55,0,0,1-.17-4A33.28,33.28,0,0,1,76,44.81c0-.17-.22-1-2.23-1s-3.75.39-4,.92a19.19,19.19,0,0,0-.83,3c-.36,1.83-4,8.36-6.11,11.76A12.13,12.13,0,0,1,61.5,56a12.55,12.55,0,0,1-.17-4,33.28,33.28,0,0,1,1.19-4.25c0-.17-.22-1-2.23-1s-3.75.39-4,.92-.42,1.78-.83,3-5.3,12.07-6.58,14.9c-.66,1.44-1.22,2.59-1.62,3.37l-.14.26c0-.07.09-.16.07-.12-.34.67-.55,1-.55,1v0c-.27.5-.56,1-.7,1A6.48,6.48,0,0,1,46,68c.73-3.78,2.47-9.65,2.45-9.86s.33-1.12-1.14-1.67a1.84,1.84,0,0,0-2.06.34c-.12,0-.22.31-.22.31s1.58-6.62-3-6.62c-2.87,0-6.87,3.16-8.84,6l-6.72,3.67-3.23,1.78L23,61.71c-5.59-6-15.92-10.18-15.48-18.2.16-2.92,1.17-10.59,19.85-19.9C42.71,16,55,18.09,57.07,22.74c3,6.64-6.55,19-22.45,20.78-6.06.67-9.25-1.67-10-2.55s-1-1-1.27-.8c-.52.28-.19,1.09,0,1.58.47,1.23,2.42,3.42,5.75,4.51,2.92,1,10,1.48,18.62-1.84,9.65-3.72,17.17-14.07,15-22.74S45.79,10,32,14.88c-8.23,2.92-17.14,7.51-23.54,13.5C.82,35.5-.4,41.7.1,44.3ZM74.48,62.11a5.65,5.65,0,0,1,.3,1.69,5.51,5.51,0,0,1-4,5.37c-.31-.22-.27-1,.78-3.23A12.16,12.16,0,0,1,74.48,62.11ZM61.27,66.53c0,.08,0,.16,0,.25,0,2.8-2.7,4.69-3.92,5.44-.42.22-.81.36-1,.25s.17-.37.17-.37,2.17-2.33,3-3.39C60.07,68.07,60.64,67.34,61.27,66.53Zm-25.85-4a21.55,21.55,0,0,1,3.42-6.26c1.58-1.77,3.31-2.33,3.72-1.62.55.92-1.91,7.72-2.53,9.25-1,2.45-3.11,8.7-4.39,8.37C34.54,72,33.87,67.26,35.42,62.57ZM21.56,66.24c.14-.09.3-.17.45-.27a12.46,12.46,0,0,1-3,12.23c-2.87,3.14-6.9,4.33-8.64,3.33s-1.12-5.7,2.42-9a46.29,46.29,0,0,1,6.78-5.06l1.78-1.08Z"/><path class="cls-2" d="M47.17,69.19Z"/></svg>