<svg id="Layer_1" data-name="Layer 1" xmlns="http://www.w3.org/2000/svg" viewBox="0 0 100 100"><defs><style>.cls-1{fill:none;}.cls-2{fill:#333;}</style></defs><title>slack</title><path class="cls-1" d="M81.74,52a5.2,5.2,0,0,0-6.56-3.28l-6.47,2.17L64.4,38l6.47-2.17A5.19,5.19,0,0,0,67.59,26l-6.47,2.17-2.23-6.72A5.19,5.19,0,1,0,49,24.73l2.23,6.72L37.92,35.94l-2.23-6.72a5.19,5.19,0,1,0-9.84,3.28l2.23,6.72L21.6,41.38a5.2,5.2,0,0,0-3.28,6.56,5.36,5.36,0,0,0,4.8,3.53c1,.13,1.72-.22,8.24-2.39L35.67,62l-6.47,2.17a5.2,5.2,0,0,0-3.28,6.56,5.36,5.36,0,0,0,4.8,3.53c1,.13,1.72-.22,8.24-2.39l2.23,6.72a5.3,5.3,0,0,0,6.56,3.28A5.2,5.2,0,0,0,51,75.27l-2.23-6.72,13.35-4.49,2.23,6.72a5.3,5.3,0,0,0,6.56,3.28,5.2,5.2,0,0,0,3.28-6.56L72,60.78l6.47-2.17A5.28,5.28,0,0,0,81.74,52ZM45.47,58.75,41.16,45.87l13.35-4.46,4.31,12.88Z"/><rect class="cls-2" x="42.95" y="43.29" width="14.08" height="13.58" transform="translate(-13.3 18.44) rotate(-18.49)"/><path class="cls-2" d="M36.25,4.19C1.87,14.51-6.12,29.37,4.19,63.75s25.18,42.37,59.56,32.06,42.37-25.18,32.06-59.56S70.63-6.12,36.25,4.19ZM78.46,58.62,72,60.78l2.23,6.72a5.2,5.2,0,0,1-3.28,6.56,5.3,5.3,0,0,1-6.56-3.28l-2.23-6.72L48.79,68.55,51,75.27a5.2,5.2,0,0,1-3.28,6.56,5.3,5.3,0,0,1-6.56-3.28l-2.23-6.72c-6.52,2.17-7.28,2.52-8.24,2.39a5.36,5.36,0,0,1-4.8-3.53,5.2,5.2,0,0,1,3.28-6.56L35.67,62,31.36,49.08c-6.52,2.17-7.28,2.52-8.24,2.39a5.36,5.36,0,0,1-4.8-3.53,5.2,5.2,0,0,1,3.28-6.56l6.47-2.17L25.85,32.5a5.19,5.19,0,1,1,9.84-3.28l2.23,6.72,13.35-4.49L49,24.73a5.19,5.19,0,1,1,9.84-3.28l2.23,6.72L67.59,26a5.19,5.19,0,0,1,3.28,9.84L64.4,38l4.31,12.88,6.47-2.17A5.2,5.2,0,0,1,81.74,52h0A5.28,5.28,0,0,1,78.46,58.62Z"/></svg>